<?xml version="1.0" encoding="UTF-8" standalone="no"?>
<!-- Created with Inkscape (http://www.inkscape.org/) -->
<svg
   xmlns:svg="http://www.w3.org/2000/svg"
   xmlns="http://www.w3.org/2000/svg"
   version="1.0"
   width="160.12"
   height="74.790001"
   id="svg1437">
  <defs
     id="defs1440" />
  <path
     d="M 32.225441,6.0661801 L 32.225441,5.8112801 C 33.643401,5.5944801 34.701021,5.1725801 35.398291,4.5456801 C 35.902191,4.1003801 36.154141,3.5700801 36.154151,2.9547801 C 36.154141,2.4919801 36.007661,2.1110801 35.714691,1.8122801 C 35.421721,1.5075801 35.192231,1.1989801 34.713721,1.0426801 C 34.089881,0.83898013 32.970021,0.70178013 32.460251,1.5161801 C 32.678741,1.7966801 32.846091,1.9698801 32.802371,2.4900801 C 32.758511,3.0119801 32.023751,3.2236801 31.820671,3.2332801 C 31.648761,3.2413801 30.965731,2.9128801 30.951501,2.3486801 C 30.941441,1.9496801 31.151231,1.4643801 31.475291,1.3873801 C 31.940171,0.84258013 31.994401,0.78388013 32.508501,0.50018013 C 33.384171,0.016980123 33.955321,0.061280123 34.523691,0.061180123 C 35.215091,0.061180123 36.570161,0.62278013 36.997901,1.0387801 C 37.425621,1.4489801 37.639491,1.9704801 37.639501,2.6032801 C 37.639491,3.1422801 37.437341,3.6608801 37.033051,4.1588801 C 36.634611,4.6569801 35.946131,5.1022801 34.967621,5.4948801 C 35.576991,5.7467801 36.036951,6.1100801 36.347511,6.5846801 C 36.658051,7.0534801 36.813321,7.6188801 36.813331,8.2809801 C 36.813321,9.0133801 36.602381,9.7487801 36.180511,10.48708 C 35.758631,11.21948 35.178561,11.78778 34.440281,12.19213 C 33.707851,12.59063 32.843601,12.47733 32.035011,12.47733 C 31.296721,12.47733 30.173821,12.04578 29.572121,11.47528 C 28.970421,10.90488 28.629777,10.25628 28.698091,9.6979801 C 28.811851,8.7680801 29.410011,8.6032801 29.876801,8.5719801 C 30.340611,8.5409801 30.792611,8.6707801 30.833841,9.2985801 C 30.866541,9.7964801 30.812351,10.07008 30.144381,10.65008 C 30.513521,11.32398 31.258741,11.94778 32.224461,11.96948 C 32.870091,11.98398 34.443211,11.66768 34.783051,11.05828 C 35.128751,10.44308 35.301601,9.7897801 35.301611,9.0983801 C 35.301601,8.5358801 35.184421,8.0348801 34.950051,7.5954801 C 34.721531,7.1559801 34.358241,6.8014801 33.860201,6.5319801 C 33.362151,6.2565801 32.817231,6.1012801 32.225441,6.0661801"
     style="font-size:18px;font-style:italic;font-variant:normal;font-weight:normal;font-stretch:normal;text-align:start;line-height:125%;writing-mode:lr-tb;text-anchor:start;fill:#000000;fill-opacity:1;stroke:none;stroke-width:0.5;stroke-linecap:butt;stroke-linejoin:miter;stroke-miterlimit:4;stroke-opacity:1;font-family:Times New Roman"
     id="text13052" />
  <g
     transform="translate(8.68873e-7,-987.8147)"
     id="g1641">
    <path
       d="M 10.145751,1051.1135 C 13.541591,1049.2935 15.351031,1045.9989 14.237971,1043.5205 C 13.050711,1040.8769 8.9709609,1040.1308 5.1313909,1041.8551 C 1.2918309,1043.5795 -0.86076913,1047.1245 0.32649087,1049.7682 C 1.5137609,1052.4118 5.5935009,1053.1579 9.4330709,1051.4335 C 9.6730409,1051.3258 9.9193509,1051.2348 10.145751,1051.1135 z "
       style="opacity:0.9;fill:#000000;fill-opacity:1;fill-rule:evenodd;stroke:none;stroke-width:0.2;stroke-miterlimit:4;stroke-dashoffset:0;stroke-opacity:1"
       id="path15691" />
    <path
       d="M 13.778251,1044.7801 L 13.778251,1011.1925"
       style="fill:none;fill-opacity:0.75;fill-rule:evenodd;stroke:#000000;stroke-width:1.5;stroke-linecap:butt;stroke-linejoin:miter;stroke-miterlimit:4;stroke-dasharray:none;stroke-opacity:1"
       id="path15693" />
  </g>
  <g
     transform="translate(-9.691091,-987.4611)"
     id="g1645">
    <path
       d="M 55.754151,1050.7599 C 59.149991,1048.9399 60.959431,1045.6453 59.846371,1043.1669 C 58.659111,1040.5233 54.579361,1039.7772 50.739791,1041.5015 C 46.900231,1043.2259 44.747631,1046.7709 45.934891,1049.4146 C 47.122161,1052.0582 51.201901,1052.8043 55.041471,1051.0799 C 55.281441,1050.9722 55.527751,1050.8812 55.754151,1050.7599 z "
       style="opacity:0.9;fill:#000000;fill-opacity:1;fill-rule:evenodd;stroke:none;stroke-width:0.2;stroke-miterlimit:4;stroke-dashoffset:0;stroke-opacity:1"
       id="path1647" />
    <path
       d="M 59.386651,1044.4265 L 59.386651,1010.8389"
       style="fill:none;fill-opacity:0.75;fill-rule:evenodd;stroke:#000000;stroke-width:1.5;stroke-linecap:butt;stroke-linejoin:miter;stroke-miterlimit:4;stroke-dasharray:none;stroke-opacity:1"
       id="path1649" />
  </g>
  <g
     transform="matrix(-1,0,0,-1,313.2829,362.9503)"
     id="g11029">
    <path
       d="M 303.13715,299.65106 C 299.74131,301.47103 297.93187,304.76561 299.04493,307.24402 C 300.23219,309.88766 304.31194,310.63374 308.15151,308.90939 C 311.99107,307.18503 314.14367,303.63999 312.95641,300.99636 C 311.76914,298.35272 307.6894,297.60664 303.84983,299.33099 C 303.60986,299.43876 303.36355,299.52973 303.13715,299.65106 z "
       style="opacity:0.9;fill:#000000;fill-opacity:1;fill-rule:evenodd;stroke:none;stroke-width:0.2;stroke-miterlimit:4;stroke-dashoffset:0;stroke-opacity:1"
       id="path11031" />
    <path
       d="M 299.50465,305.98445 L 299.50465,339.57202"
       style="fill:none;fill-opacity:0.75;fill-rule:evenodd;stroke:#000000;stroke-width:1.5;stroke-linecap:butt;stroke-linejoin:miter;stroke-miterlimit:4;stroke-dasharray:none;stroke-opacity:1"
       id="path11033" />
  </g>
  <text
     x="62.896828"
     y="65.954376"
     style="font-size:12px;font-style:normal;font-weight:normal;line-height:125%;fill:#000000;fill-opacity:1;stroke:none;stroke-width:1px;stroke-linecap:butt;stroke-linejoin:miter;stroke-opacity:1;font-family:Bitstream Vera Sans"
     id="text1792"
     xml:space="preserve"><tspan
       x="62.896828"
       y="65.954376"
       style="font-size:24px;font-style:normal;font-variant:normal;font-weight:bold;font-stretch:normal;text-align:start;line-height:125%;writing-mode:lr-tb;text-anchor:start;font-family:Times New Roman"
       id="tspan1794">=</tspan></text>
  <path
     d="M 126.81129,68.849601 C 126.81129,68.849601 119.09547,72.331501 112.73129,72.331501 C 106.80041,72.331501 99.579171,68.725301 99.579171,68.725301 C 99.579171,68.725301 106.42895,74.790001 112.75998,74.790001 C 119.09103,74.790001 126.81129,68.849601 126.81129,68.849601 z "
     style="fill:#000000;fill-opacity:1;fill-rule:evenodd;stroke:none;stroke-width:1px;stroke-linecap:butt;stroke-linejoin:miter;stroke-opacity:1"
     id="path2088" />
  <path
     d="M 131.85969,6.0151293 L 131.85969,5.7602293 C 133.27765,5.5434293 134.33527,5.1215293 135.03254,4.4946293 C 135.53644,4.0493293 135.78839,3.5190293 135.7884,2.9037293 C 135.78839,2.4409293 135.64191,2.0600293 135.34894,1.7612293 C 135.05597,1.4565293 134.82648,1.1479293 134.34797,0.99162935 C 133.72413,0.78792935 132.60427,0.65072935 132.0945,1.4651293 C 132.31299,1.7456293 132.48034,1.9188293 132.43662,2.4390293 C 132.39276,2.9609293 131.658,3.1726293 131.45492,3.1822293 C 131.28301,3.1903293 130.59998,2.8618293 130.58575,2.2976293 C 130.57569,1.8986293 130.78548,1.4133293 131.10954,1.3363293 C 131.57442,0.79152935 131.62865,0.73282935 132.14275,0.44912935 C 133.01842,-0.034070558 133.58957,0.010229442 134.15794,0.010129442 C 134.84934,0.010129442 136.20441,0.57172935 136.63215,0.98772935 C 137.05987,1.3979293 137.27374,1.9194293 137.27375,2.5522293 C 137.27374,3.0912293 137.07159,3.6098293 136.6673,4.1078293 C 136.26886,4.6059293 135.58038,5.0512293 134.60187,5.4438293 C 135.21124,5.6957293 135.6712,6.0590293 135.98176,6.5336293 C 136.2923,7.0024293 136.44757,7.5678293 136.44758,8.2299293 C 136.44757,8.9623293 136.23663,9.6977293 135.81476,10.436029 C 135.39288,11.168429 134.81281,11.736729 134.07453,12.141079 C 133.3421,12.539579 132.47785,12.426279 131.66926,12.426279 C 130.93097,12.426279 129.80807,11.994729 129.20637,11.424229 C 128.60467,10.853829 128.26403,10.205229 128.33234,9.6469293 C 128.4461,8.7170293 129.04426,8.5522293 129.51105,8.5209293 C 129.97486,8.4899293 130.42686,8.6197293 130.46809,9.2475293 C 130.50079,9.7454293 130.4466,10.019029 129.77863,10.599029 C 130.14777,11.272929 130.89299,11.896729 131.85871,11.918429 C 132.50434,11.932929 134.07746,11.616629 134.4173,11.007229 C 134.763,10.392029 134.93585,9.7387293 134.93586,9.0473293 C 134.93585,8.4848293 134.81867,7.9838293 134.5843,7.5444293 C 134.35578,7.1049293 133.99249,6.7504293 133.49445,6.4809293 C 132.9964,6.2055293 132.45148,6.0502293 131.85969,6.0151293"
     style="font-size:18px;font-style:italic;font-variant:normal;font-weight:normal;font-stretch:normal;text-align:start;line-height:125%;writing-mode:lr-tb;text-anchor:start;fill:#000000;fill-opacity:1;stroke:none;stroke-width:0.5;stroke-linecap:butt;stroke-linejoin:miter;stroke-miterlimit:4;stroke-opacity:1;font-family:Times New Roman"
     id="path2464" />
  <g
     transform="translate(72.93078,-987.5122)"
     id="g2466">
    <path
       d="M 55.754151,1050.7599 C 59.149991,1048.9399 60.959431,1045.6453 59.846371,1043.1669 C 58.659111,1040.5233 54.579361,1039.7772 50.739791,1041.5015 C 46.900231,1043.2259 44.747631,1046.7709 45.934891,1049.4146 C 47.122161,1052.0582 51.201901,1052.8043 55.041471,1051.0799 C 55.281441,1050.9722 55.527751,1050.8812 55.754151,1050.7599 z "
       style="opacity:0.9;fill:#000000;fill-opacity:1;fill-rule:evenodd;stroke:none;stroke-width:0.2;stroke-miterlimit:4;stroke-dashoffset:0;stroke-opacity:1"
       id="path2468" />
    <path
       d="M 59.386651,1044.4265 L 59.386651,1010.8389"
       style="fill:none;fill-opacity:0.75;fill-rule:evenodd;stroke:#000000;stroke-width:1.5;stroke-linecap:butt;stroke-linejoin:miter;stroke-miterlimit:4;stroke-dasharray:none;stroke-opacity:1"
       id="path2470" />
  </g>
  <g
     transform="translate(91.6343,-987.8658)"
     id="g2472">
    <path
       d="M 10.145751,1051.1135 C 13.541591,1049.2935 15.351031,1045.9989 14.237971,1043.5205 C 13.050711,1040.8769 8.9709609,1040.1308 5.1313909,1041.8551 C 1.2918309,1043.5795 -0.86076913,1047.1245 0.32649087,1049.7682 C 1.5137609,1052.4118 5.5935009,1053.1579 9.4330709,1051.4335 C 9.6730409,1051.3258 9.9193509,1051.2348 10.145751,1051.1135 z "
       style="opacity:0.9;fill:#000000;fill-opacity:1;fill-rule:evenodd;stroke:none;stroke-width:0.2;stroke-miterlimit:4;stroke-dashoffset:0;stroke-opacity:1"
       id="path2474" />
    <path
       d="M 13.778251,1044.7801 L 13.778251,1011.1925"
       style="fill:none;fill-opacity:0.75;fill-rule:evenodd;stroke:#000000;stroke-width:1.5;stroke-linecap:butt;stroke-linejoin:miter;stroke-miterlimit:4;stroke-dasharray:none;stroke-opacity:1"
       id="path2476" />
  </g>
  <rect
     width="55.419266"
     height="4.4712305"
     x="-160.05392"
     y="-26.336794"
     transform="scale(-1,-1)"
     style="opacity:0.9;fill:#000000;fill-opacity:1;fill-rule:evenodd;stroke:none;stroke-width:0.5;stroke-miterlimit:4;stroke-dasharray:none;stroke-dashoffset:0;stroke-opacity:1"
     id="rect2478" />
  <g
     transform="translate(99.9432,-987.5122)"
     id="g2480">
    <path
       d="M 55.754151,1050.7599 C 59.149991,1048.9399 60.959431,1045.6453 59.846371,1043.1669 C 58.659111,1040.5233 54.579361,1039.7772 50.739791,1041.5015 C 46.900231,1043.2259 44.747631,1046.7709 45.934891,1049.4146 C 47.122161,1052.0582 51.201901,1052.8043 55.041471,1051.0799 C 55.281441,1050.9722 55.527751,1050.8812 55.754151,1050.7599 z "
       style="opacity:0.9;fill:#000000;fill-opacity:1;fill-rule:evenodd;stroke:none;stroke-width:0.2;stroke-miterlimit:4;stroke-dashoffset:0;stroke-opacity:1"
       id="path2482" />
    <path
       d="M 59.386651,1044.4265 L 59.386651,1010.8389"
       style="fill:none;fill-opacity:0.75;fill-rule:evenodd;stroke:#000000;stroke-width:1.5;stroke-linecap:butt;stroke-linejoin:miter;stroke-miterlimit:4;stroke-dasharray:none;stroke-opacity:1"
       id="path2484" />
  </g>
  <g
     transform="translate(-391.2634,-11.48641)"
     id="g12994">
    <path
       d="M 431.56955,65.847427 C 428.17371,67.667397 426.36427,70.961977 427.47733,73.440387 C 428.66459,76.084027 432.74434,76.830107 436.58391,75.105757 C 440.42347,73.381397 442.57607,69.836357 441.38881,67.192727 C 440.20154,64.549087 436.1218,63.803007 432.28223,65.527357 C 432.04226,65.635127 431.79595,65.726097 431.56955,65.847427 z "
       style="opacity:0.9;fill:#000000;fill-opacity:1;fill-rule:evenodd;stroke:none;stroke-width:0.2;stroke-miterlimit:4;stroke-dashoffset:0;stroke-opacity:1"
       id="path12112" />
    <path
       d="M 441.18705,68.62194 L 441.18705,35.03437"
       style="fill:none;fill-opacity:0.75;fill-rule:evenodd;stroke:#000000;stroke-width:1.5;stroke-linecap:butt;stroke-linejoin:miter;stroke-miterlimit:4;stroke-dasharray:none;stroke-opacity:1"
       id="path12114" />
    <path
       d="M 441.1824,35.99421 C 440.6199,42.30671 446.02495,44.56795 448.6824,47.49421 C 451.20836,50.27568 452.13107,53.48393 452.02788,56.48981 C 452.00033,57.29238 451.78245,60.76992 449.41343,64.25653 C 452.58135,55.50942 449.6319,51.99847 446.75047,49.20495 C 443.26053,45.82149 440.66435,42.63277 441.1824,35.99421 z "
       style="fill:#000000;fill-opacity:1;fill-rule:evenodd;stroke:none;stroke-width:1px;stroke-linecap:butt;stroke-linejoin:miter;stroke-opacity:1"
       id="path12116" />
  </g>
</svg>
