<?xml version="1.0" encoding="UTF-8" standalone="no"?>
<!-- Created with Inkscape (http://www.inkscape.org/) -->
<svg
   xmlns:dc="http://purl.org/dc/elements/1.1/"
   xmlns:cc="http://web.resource.org/cc/"
   xmlns:rdf="http://www.w3.org/1999/02/22-rdf-syntax-ns#"
   xmlns:svg="http://www.w3.org/2000/svg"
   xmlns="http://www.w3.org/2000/svg"
   xmlns:sodipodi="http://sodipodi.sourceforge.net/DTD/sodipodi-0.dtd"
   xmlns:inkscape="http://www.inkscape.org/namespaces/inkscape"
   width="800px"
   height="600px"
   id="svg4548"
   sodipodi:version="0.32"
   inkscape:version="0.45"
   sodipodi:docbase="/home/francisco/res/svg"
   sodipodi:docname="border.svg"
   inkscape:output_extension="org.inkscape.output.svg.inkscape"
   inkscape:export-filename="/home/francisco/res/svg/border.png"
   inkscape:export-xdpi="105.03506"
   inkscape:export-ydpi="105.03506"
   sodipodi:modified="true">
  <defs
     id="defs4550">
    <marker
       inkscape:stockid="Club"
       orient="auto"
       refY="0.0"
       refX="0.0"
       id="Club"
       style="overflow:visible">
      <path
         id="path7535"
         d="M -1.5971367,-7.0977635 C -3.4863874,-7.0977635 -5.0235187,-5.5606321 -5.0235187,-3.6713813 C -5.0235187,-3.0147015 -4.7851656,-2.4444556 -4.4641095,-1.9232271 C -4.5028609,-1.8911157 -4.5437814,-1.8647646 -4.5806531,-1.8299921 C -5.2030765,-2.6849849 -6.1700514,-3.2751330 -7.3077730,-3.2751330 C -9.1970245,-3.2751331 -10.734155,-1.7380016 -10.734155,0.15124914 C -10.734155,2.0404999 -9.1970245,3.5776313 -7.3077730,3.5776313 C -6.3143268,3.5776313 -5.4391540,3.1355702 -4.8137404,2.4588126 C -4.9384274,2.8137041 -5.0235187,3.1803000 -5.0235187,3.5776313 C -5.0235187,5.4668819 -3.4863874,7.0040135 -1.5971367,7.0040135 C 0.29211394,7.0040135 1.8292454,5.4668819 1.8292454,3.5776313 C 1.8292454,2.7842354 1.5136868,2.0838028 1.0600576,1.5031550 C 2.4152718,1.7663868 3.7718375,2.2973711 4.7661444,3.8340272 C 4.0279463,3.0958289 3.5540908,1.7534117 3.5540908,-0.058529361 L 2.9247554,-0.10514681 L 3.5074733,-0.12845553 C 3.5074733,-1.9403966 3.9580199,-3.2828138 4.6962183,-4.0210121 C 3.7371277,-2.5387813 2.4390549,-1.9946496 1.1299838,-1.7134486 C 1.5341802,-2.2753578 1.8292454,-2.9268556 1.8292454,-3.6713813 C 1.8292454,-5.5606319 0.29211394,-7.0977635 -1.5971367,-7.0977635 z "
         style="fill-rule:evenodd;stroke:#000000;stroke-width:0.74587913pt;marker-start:none"
         transform="scale(0.6)" />
    </marker>
  </defs>
  <sodipodi:namedview
     id="base"
     pagecolor="#ffffff"
     bordercolor="#666666"
     borderopacity="1.0"
     inkscape:pageopacity="0.0"
     inkscape:pageshadow="2"
     inkscape:zoom="1.4142136"
     inkscape:cx="229.88757"
     inkscape:cy="455.97613"
     inkscape:current-layer="layer1"
     inkscape:document-units="px"
     inkscape:window-width="1024"
     inkscape:window-height="720"
     inkscape:window-x="0"
     inkscape:window-y="25" />
  <metadata
     id="metadata4553">
    <rdf:RDF>
      <cc:Work
         rdf:about="">
        <dc:format>image/svg+xml</dc:format>
        <dc:type
           rdf:resource="http://purl.org/dc/dcmitype/StillImage" />
      </cc:Work>
    </rdf:RDF>
  </metadata>
  <g
     id="layer1"
     inkscape:label="Layer 1"
     inkscape:groupmode="layer">
    <path
       style="opacity:1;fill:none;fill-rule:evenodd;stroke:#9b0009;stroke-width:1;stroke-linecap:butt;stroke-linejoin:miter;marker-mid:none;stroke-miterlimit:4;stroke-dasharray:none;stroke-dashoffset:0;stroke-opacity:1"
       d="M 73.024881,75.273795 C 106.50367,57.996865 143.77439,54.697094 180.39424,50.366498 C 215.48303,49.003523 249.99616,56.931866 283.78301,64.937877 C 354.94094,70.225726 423.52499,47.34335 492.40191,33.730128 C 514.67891,29.62283 538.33076,29.948667 555.33801,46.917513 C 581.82894,65.912083 619.19556,78.308463 648.84269,66.809909 C 678.48982,55.311355 722.72308,76.275231 712.74502,108.17917 C 702.76696,140.08311 688.54676,169.49752 688.68898,204.41148 C 688.8312,239.32543 696.88357,273.89222 709.8515,306.23995 C 720.14401,340.85222 715.18601,378.2655 698.95275,410.18612 C 687.1344,445.82655 706.72127,480.76631 720.10755,513.11965 C 733.49383,545.47298 690.59162,565.57375 662.51648,562.73818 C 617.18758,558.89486 577.58817,521.27957 530.35521,533.30388 C 483.37735,543.04663 437.77962,565.57987 388.57427,558.494 C 358.37287,557.56946 330.50056,535.25812 300.13376,544.83187 C 270.06337,552.8456 237.95983,569.67588 207.00561,555.04684 C 170.93683,545.66884 131.96305,573.16453 97.978155,551.23775 C 63.993262,529.31097 102.33976,478.09222 70.850196,470.10343 C 39.360635,462.11464 91.214628,426.40143 85.375585,393.92763 C 79.536542,361.45383 54.268873,323.77868 69.27825,284.94898 C 80.358691,233.793 69.847537,181.42358 54.065621,132.56916 C 50.279726,108.08568 53.741332,91.343228 73.024881,75.273795 z "
       id="path4598"
       sodipodi:nodetypes="ccccczzzcczccccczzzccc" />
    <path
       style="opacity:1;fill:none;fill-rule:evenodd;stroke:#000000;stroke-width:1;stroke-linecap:butt;stroke-linejoin:miter;marker-mid:none;stroke-miterlimit:4;stroke-dasharray:none;stroke-dashoffset:0;stroke-opacity:1"
       d="M 708.51079,542.38238 C 675.03201,559.65931 637.05418,554.4738 600.43433,558.8044 C 565.34553,560.16737 530.8324,552.23903 497.04554,544.23302 C 425.88762,538.94517 357.30356,561.82754 288.42664,575.44077 C 266.14964,579.54806 242.4978,579.22223 225.49055,562.25338 C 198.99962,543.25881 164.12642,527.80651 131.98587,542.36098 C 104.83218,550.80362 58.105479,532.89565 68.083542,500.99171 C 78.061605,469.08777 94.991362,441.02814 94.849136,406.11418 C 94.70691,371.20022 83.944991,335.27867 70.977066,302.93094 C 60.684554,268.31867 65.642555,230.90539 81.875811,198.98477 C 93.694161,163.34434 76.949702,127.14453 60.721015,96.051242 C 50.17715,62.43786 90.236947,43.59714 118.31208,46.432706 C 163.64097,50.27603 203.24039,87.891324 250.47335,75.86701 C 297.4512,66.124259 343.04894,43.591018 392.25429,50.676884 C 422.45569,51.601432 450.328,73.912768 480.69479,64.339022 C 510.76519,56.325284 542.86874,39.49501 573.82296,54.124048 C 609.89174,63.502052 648.86551,36.006351 682.85041,57.933134 C 716.83531,79.859917 694.14988,113.23933 709.97837,139.06746 C 718.54146,174.33444 689.61395,182.76946 695.45299,215.24326 C 701.29203,247.71706 714.36671,289.45654 699.35733,328.28624 C 688.2769,379.44221 716.97905,439.93277 726.76295,476.60173 C 736.54686,513.27068 727.79435,526.31295 708.51079,542.38238 z "
       id="path8730"
       sodipodi:nodetypes="cccccczzcccccccczczczc"
       inkscape:export-filename="/home/francisco/res/svg/border.png"
       inkscape:export-xdpi="105.03506"
       inkscape:export-ydpi="105.03506" />
  </g>
</svg>
