<?xml version="1.0" encoding="UTF-8" standalone="no"?>
<!-- Created with Inkscape (http://www.inkscape.org/) -->
<svg
   xmlns:dc="http://purl.org/dc/elements/1.1/"
   xmlns:cc="http://web.resource.org/cc/"
   xmlns:rdf="http://www.w3.org/1999/02/22-rdf-syntax-ns#"
   xmlns:svg="http://www.w3.org/2000/svg"
   xmlns="http://www.w3.org/2000/svg"
   xmlns:sodipodi="http://sodipodi.sourceforge.net/DTD/sodipodi-0.dtd"
   xmlns:inkscape="http://www.inkscape.org/namespaces/inkscape"
   version="1.0"
   width="14.665"
   height="49.169998"
   id="svg1783"
   sodipodi:version="0.32"
   inkscape:version="0.45"
   sodipodi:docname="Figure_rythmique_triple_croche_hampe_bas.svg"
   sodipodi:docbase="/home/francisco/Desktop/svg"
   inkscape:output_extension="org.inkscape.output.svg.inkscape"
   sodipodi:modified="true">
  <metadata
     id="metadata19451">
    <rdf:RDF>
      <cc:Work
         rdf:about="">
        <dc:format>image/svg+xml</dc:format>
        <dc:type
           rdf:resource="http://purl.org/dc/dcmitype/StillImage" />
      </cc:Work>
    </rdf:RDF>
  </metadata>
  <sodipodi:namedview
     inkscape:window-height="619"
     inkscape:window-width="872"
     inkscape:pageshadow="2"
     inkscape:pageopacity="0.0"
     guidetolerance="10.0"
     gridtolerance="10.0"
     objecttolerance="10.0"
     borderopacity="1.0"
     bordercolor="#666666"
     pagecolor="#ffffff"
     id="base"
     inkscape:zoom="8.2774052"
     inkscape:cx="7.3325"
     inkscape:cy="24.584999"
     inkscape:window-x="0"
     inkscape:window-y="47"
     inkscape:current-layer="svg1783" />
  <defs
     id="defs1786" />
  <g
     id="g20427">
    <path
       d="M 4.51879,1.24902 C 1.12295,3.06899 -0.68649,6.36357 0.42657,8.84198 C 1.61383,11.48562 5.69358,12.2317 9.53315,10.50735 C 13.37271,8.78299 15.52531,5.23795 14.33805,2.59432 C 13.15078,-0.04932 9.07104,-0.7954 5.23147,0.92895 C 4.9915,1.03672 4.74519,1.12769 4.51879,1.24902 z "
       style="opacity:1;fill:#000000;fill-opacity:1;fill-rule:evenodd;stroke:none;stroke-width:0.2;stroke-miterlimit:4;stroke-dashoffset:0;stroke-opacity:1"
       id="path16534" />
    <path
       d="M 0.88629,7.33241 L 0.88629,48.41998"
       style="fill:none;fill-opacity:0.75;fill-rule:evenodd;stroke:#000000;stroke-width:1.5;stroke-linecap:butt;stroke-linejoin:miter;stroke-miterlimit:4;stroke-dasharray:none;stroke-opacity:1"
       id="path16536" />
    <path
       d="M 0.63164,47.71014 C 0.06914,41.39764 5.47419,39.1364 8.13164,36.21014 C 10.6576,33.42867 11.58031,30.22042 11.47712,27.21454 C 11.44957,26.41197 11.23169,22.93443 8.86267,19.44782 C 12.03059,28.19493 9.08114,31.70588 6.19971,34.4994 C 2.70977,37.88286 0.11359,41.07158 0.63164,47.71014 z "
       style="fill:#000000;fill-opacity:1;fill-rule:evenodd;stroke:none;stroke-width:1px;stroke-linecap:butt;stroke-linejoin:miter;stroke-opacity:1"
       id="path16538" />
    <path
       d="M 0.51329,40.18819 C -0.04921,33.87569 5.35584,31.61445 8.01329,28.68819 C 10.53925,25.90672 11.46196,22.69847 11.35877,19.69259 C 11.33122,18.89002 11.11334,15.41248 8.74432,11.92587 C 11.91224,20.67298 8.96279,24.18393 6.08136,26.97745 C 2.59142,30.36091 -0.00476,33.54963 0.51329,40.18819 z "
       style="fill:#000000;fill-opacity:1;fill-rule:evenodd;stroke:none;stroke-width:1px;stroke-linecap:butt;stroke-linejoin:miter;stroke-opacity:1"
       id="path16540" />
    <path
       d="M 0.06599,33.26094 C -0.49651,26.94844 4.90854,24.6872 7.56599,21.76094 C 10.09195,18.97947 11.01466,15.77122 10.91147,12.76534 C 10.88392,11.96277 10.66604,8.48523 8.29702,4.99862 C 11.46494,13.74573 8.51549,17.25668 5.63406,20.0502 C 2.14412,23.43366 -0.45206,26.62238 0.06599,33.26094 z "
       style="fill:#000000;fill-opacity:1;fill-rule:evenodd;stroke:none;stroke-width:1px;stroke-linecap:butt;stroke-linejoin:miter;stroke-opacity:1"
       id="path16546" />
  </g>
</svg>
