<?xml version="1.0" encoding="UTF-8" standalone="no"?>
<!-- Created with Inkscape (http://www.inkscape.org/) -->
<svg
   xmlns:dc="http://purl.org/dc/elements/1.1/"
   xmlns:cc="http://web.resource.org/cc/"
   xmlns:rdf="http://www.w3.org/1999/02/22-rdf-syntax-ns#"
   xmlns:svg="http://www.w3.org/2000/svg"
   xmlns="http://www.w3.org/2000/svg"
   xmlns:sodipodi="http://sodipodi.sourceforge.net/DTD/sodipodi-0.dtd"
   xmlns:inkscape="http://www.inkscape.org/namespaces/inkscape"
   id="svg2274"
   sodipodi:version="0.32"
   inkscape:version="0.45"
   width="50"
   height="69"
   version="1.0"
   sodipodi:docbase="/home/francisco/Desktop"
   sodipodi:docname="images.jpeg"
   sodipodi:modified="true">
  <metadata
     id="metadata2279">
    <rdf:RDF>
      <cc:Work
         rdf:about="">
        <dc:format>image/svg+xml</dc:format>
        <dc:type
           rdf:resource="http://purl.org/dc/dcmitype/StillImage" />
      </cc:Work>
    </rdf:RDF>
  </metadata>
  <defs
     id="defs2277" />
  <sodipodi:namedview
     inkscape:window-height="619"
     inkscape:window-width="872"
     inkscape:pageshadow="2"
     inkscape:pageopacity="0.0"
     guidetolerance="10.0"
     gridtolerance="10.0"
     objecttolerance="10.0"
     borderopacity="1.0"
     bordercolor="#666666"
     pagecolor="#ffffff"
     id="base"
     inkscape:zoom="6.1304348"
     inkscape:cx="25"
     inkscape:cy="34.5"
     inkscape:window-x="0"
     inkscape:window-y="47"
     inkscape:current-layer="svg2274" />
  <path
     style="fill:#000000"
     d="M 6.4078905,63.569998 C 5.3547465,62.516854 7.2169089,60.052458 7.8063669,59.317812 C 8.3112419,58.688582 7.3911062,48.638367 7.7553162,35.389044 C 8.3338892,14.341597 8.2223212,11.137367 6.8718792,10.0166 C 6.0217782,9.3110784 5.3262412,7.9165069 5.3262412,6.9175516 C 5.3262412,4.3184877 10.944882,3.7065668 29.1215,4.3260325 C 47.294813,4.9453856 48.883511,5.518354 44.290977,9.7969497 C 42.331237,11.622725 42.270231,12.57969 42.646935,35.585904 C 42.862106,48.726955 42.547409,57.115434 43.105956,58.39007 C 43.55111,59.405937 46.467574,61.554133 45.457447,63.66312 C 44.89477,64.837902 26.181769,64.762823 26.181769,64.762823 C 10.913053,65.00867 7.8271105,64.989218 6.4078905,63.569998 z M 36.761728,55.728723 C 35.642362,52.127097 29.250332,42.975091 26.676238,41.28848 C 24.769437,40.039096 24.026819,39.982332 22.809172,40.992889 C 19.913981,43.395684 14.467166,51.571443 13.80188,54.512982 C 13.177854,57.272089 13.536705,57.069664 18.952333,51.607651 L 24.773547,45.736579 L 30.299894,51.782711 C 36.247767,58.290015 37.864631,59.277376 36.761728,55.728723 z M 40.326241,35.919706 C 40.326241,26.623655 39.967223,21.978723 39.248709,21.978723 C 37.645919,21.978723 30.42037,30.132272 29.7164,32.735296 C 28.635716,36.731272 30.269987,41.363557 34.470909,46.211784 C 36.726531,48.814967 38.966735,50.70091 39.449141,50.402767 C 39.931546,50.104624 40.326241,43.587247 40.326241,35.919706 z M 16.271205,44.315931 C 20.748878,38.062934 21.280671,34.792294 18.702954,29.360158 C 17.02376,25.821518 12.083782,21.554516 10.963363,22.674935 C 9.9271892,23.711108 10.223349,49.978723 11.271205,49.978723 C 11.790935,49.978723 14.040935,47.430467 16.271205,44.315931 z M 33.024425,17.557948 C 36.502229,15.296934 37.96624,12.004781 36.038641,10.779815 C 35.371821,10.356059 29.730745,10.002458 23.502917,9.9940362 C 9.9462842,9.9757032 9.5217302,10.706234 18.826241,18.041211 C 25.491639,23.29571 24.127399,23.342145 33.024425,17.557948 z "
     id="path2283"
     sodipodi:nodetypes="cssssssssscccssscccccssssccsssccsssc" />
</svg>
