<?xml version="1.0" encoding="UTF-8" standalone="no"?>
<!-- Created with Inkscape (http://www.inkscape.org/) -->
<svg
   xmlns:dc="http://purl.org/dc/elements/1.1/"
   xmlns:cc="http://web.resource.org/cc/"
   xmlns:rdf="http://www.w3.org/1999/02/22-rdf-syntax-ns#"
   xmlns:svg="http://www.w3.org/2000/svg"
   xmlns="http://www.w3.org/2000/svg"
   xmlns:sodipodi="http://sodipodi.sourceforge.net/DTD/sodipodi-0.dtd"
   xmlns:inkscape="http://www.inkscape.org/namespaces/inkscape"
   width="744.09448819"
   height="1052.3622047"
   id="svg2"
   sodipodi:version="0.32"
   inkscape:version="0.45"
   sodipodi:docbase="/home/francisco/programming/python/readMusic/resources/images/svg"
   sodipodi:docname="treble_clef.svg"
   inkscape:output_extension="org.inkscape.output.svg.inkscape"
   sodipodi:modified="TRUE">
  <defs
     id="defs4">
    <marker
       style="overflow:visible"
       id="Arrow2Lend"
       refX="0"
       refY="0"
       orient="auto"
       inkscape:stockid="Arrow2Lend">
      <path
         transform="matrix(-1.1,0,0,-1.1,-1.1,0)"
         d="M 8.7185878,4.0337352 L -2.2072895,0.016013256 L 8.7185884,-4.0017078 C 6.97309,-1.6296469 6.9831476,1.6157441 8.7185878,4.0337352 z "
         style="font-size:12px;fill-rule:evenodd;stroke-width:0.625;stroke-linejoin:round"
         id="path4785" />
    </marker>
    <marker
       style="overflow:visible"
       id="DiamondS"
       refX="0"
       refY="0"
       orient="auto"
       inkscape:stockid="DiamondS">
      <path
         transform="scale(0.2,0.2)"
         style="fill-rule:evenodd;stroke:black;stroke-width:1pt;marker-start:none"
         d="M 0,-7.0710768 L -7.0710894,0 L 0,7.0710589 L 7.0710462,0 L 0,-7.0710768 z "
         id="path4720" />
    </marker>
  </defs>
  <sodipodi:namedview
     id="base"
     pagecolor="#ffffff"
     bordercolor="#666666"
     borderopacity="1.0"
     gridtolerance="10000"
     guidetolerance="10"
     objecttolerance="10"
     inkscape:pageopacity="0.0"
     inkscape:pageshadow="2"
     inkscape:zoom="0.35"
     inkscape:cx="267.33409"
     inkscape:cy="467.48225"
     inkscape:document-units="px"
     inkscape:current-layer="layer1"
     inkscape:window-width="910"
     inkscape:window-height="623"
     inkscape:window-x="0"
     inkscape:window-y="25" />
  <metadata
     id="metadata7">
    <rdf:RDF>
      <cc:Work
         rdf:about="">
        <dc:format>image/svg+xml</dc:format>
        <dc:type
           rdf:resource="http://purl.org/dc/dcmitype/StillImage" />
      </cc:Work>
    </rdf:RDF>
  </metadata>
  <g
     inkscape:label="Layer 1"
     inkscape:groupmode="layer"
     id="layer1">
    <path
       id="path1843"
       style="fill:#131516;fill-rule:evenodd;stroke:#131516;stroke-width:0.60186023"
       d="M 351.18858,525.01482 C 338.93588,528.42122 327.88837,536.03553 317.64431,547.65737 C 307.40026,559.47959 302.37866,572.50406 302.37866,586.53043 C 302.37866,595.34699 305.39161,605.36583 311.21667,615.98578 C 317.04172,626.80611 325.87973,634.6208 337.32897,639.63022 C 341.14539,640.43172 342.95316,642.43549 342.95316,645.24076 C 342.95316,646.24265 341.54711,647.24453 338.13243,648.04604 C 319.85381,643.43737 304.78902,633.61892 293.13892,618.99143 C 281.48881,604.16356 275.4629,587.33193 275.06117,568.09578 C 275.66377,547.457 281.89054,528.22085 293.74151,510.5877 C 305.79334,492.7542 321.25986,480.13047 340.14107,472.71653 L 326.28145,401.58285 C 295.34843,427.23106 270.24044,453.88114 250.75664,481.93386 C 231.27285,509.7862 221.22965,540.04306 220.4262,572.70444 C 220.82793,587.33193 223.84089,601.55867 229.46508,615.18428 C 235.08927,629.01026 243.52555,641.43361 254.77393,652.85507 C 277.47154,675.49762 306.99853,687.31985 342.95316,688.5221 C 355.20586,687.7206 368.26201,685.51646 382.32247,681.90968 L 351.18858,525.01482 z M 365.65077,523.01106 L 396.98554,677.10064 C 427.91852,664.67728 443.38507,637.62645 443.38507,596.34888 C 441.57736,582.5229 437.55999,570.09955 430.73068,559.07884 C 424.10213,547.85775 415.26413,539.04118 404.01582,532.62913 C 392.7674,526.21707 380.11297,523.01106 365.65077,523.01106 z M 324.47368,314.61943 C 331.10219,310.61189 338.73502,303.59871 346.97043,293.78025 C 355.20586,284.16218 363.24041,272.74072 370.87324,259.91661 C 378.70692,246.89214 384.93371,233.66728 389.55358,220.24206 C 394.17344,207.0172 396.38294,194.39348 396.38294,182.77164 C 396.38294,177.76222 395.98122,172.75281 394.9769,168.34452 C 394.17344,161.13097 391.96394,155.52043 388.14753,151.71327 C 384.33111,148.1065 379.51039,146.10273 373.48446,146.10273 C 361.43263,146.10273 350.58598,153.51666 340.94452,168.34452 C 333.51256,181.16862 327.28577,196.39724 322.86678,213.62963 C 318.24691,231.06239 315.63567,248.29477 315.23394,265.72753 C 316.23827,285.56482 319.45209,301.79532 324.47368,314.61943 z M 311.81926,326.24126 C 302.78039,293.78025 297.7588,260.71813 296.75447,227.05486 C 296.95533,205.41419 299.16484,185.17615 303.38297,166.34076 C 307.40026,147.50536 313.2253,131.27486 320.85813,117.2485 C 328.2901,103.22214 336.92725,92.60218 346.56871,85.38862 C 355.20586,78.97658 361.43263,75.57017 364.84732,75.57017 C 367.45855,75.57017 369.66806,76.57205 371.67669,78.37544 C 373.68533,80.17883 376.29656,83.18448 379.51039,87.19201 C 403.41321,121.05565 415.465,161.93247 415.465,209.62209 C 415.465,232.26466 412.45208,254.30607 406.42613,276.3475 C 400.60105,298.18854 391.96394,319.02771 380.5147,338.46423 C 368.86459,358.10114 355.20586,375.13315 339.33761,389.76064 L 355.60759,468.70901 C 364.4456,467.70712 370.47151,466.90562 373.8862,466.90562 C 389.15185,466.90562 402.81061,470.11164 415.465,476.52369 C 428.11939,482.93574 438.96607,491.55193 447.80407,502.57264 C 456.64207,513.39298 463.47149,525.81632 468.29223,539.84269 C 472.91209,553.86904 475.52328,568.49653 475.52328,583.72515 C 475.52328,607.36959 469.29657,629.01026 456.84294,648.44679 C 444.38941,667.88331 425.70908,682.11005 400.60105,691.32738 C 402.208,701.14583 405.02005,715.37257 409.23818,733.60683 C 413.25555,752.0415 416.26847,766.669 418.27716,777.4893 C 420.28573,788.3096 421.08921,798.7292 421.08921,808.9484 C 421.08921,824.7782 417.27281,838.8045 409.63992,851.2279 C 401.80626,863.6513 391.36135,873.2693 378.10434,880.0821 C 365.04818,886.8949 350.58598,890.3013 334.91861,890.3013 C 312.82358,890.3013 293.54065,884.0896 277.06981,871.8667 C 260.59897,859.4434 251.76097,842.8121 250.95751,821.5721 C 251.5601,812.1544 253.76961,803.3379 257.78688,794.9221 C 261.80415,786.5062 267.22748,779.6934 274.25772,774.4836 C 281.08709,769.0735 289.32251,766.2682 298.76311,765.6671 C 306.5968,765.6671 314.02877,767.8712 321.059,772.0791 C 327.88837,776.4874 333.51256,782.2983 337.7307,789.7123 C 341.74797,797.1262 343.95748,805.3416 343.95748,814.1582 C 343.95748,825.9804 339.9402,835.9993 331.90564,844.2147 C 323.8711,852.4301 313.62704,856.6381 301.37434,856.6381 L 296.75447,856.6381 C 304.58816,868.6607 317.44344,874.8724 335.32033,874.8724 C 344.35921,874.8724 353.59894,872.8685 362.83868,869.2618 C 372.27928,865.4546 380.11297,860.4452 386.74148,854.0331 C 393.36999,847.6211 397.78899,840.8083 399.59677,833.5947 C 403.01147,825.3793 404.61831,813.9578 404.61831,799.7311 C 404.61831,790.113 403.61408,780.4949 401.80626,770.8769 C 399.9985,761.4592 397.18641,748.8354 393.36999,733.20608 C 389.55358,717.77708 386.74148,705.75448 385.13457,697.53905 C 373.08274,700.5447 360.62918,702.1477 347.57303,702.1477 C 325.67887,702.1477 304.98989,697.73942 285.5061,688.72247 C 266.02229,679.70553 248.94887,667.28219 234.08495,651.25206 C 219.42188,635.22194 207.97265,617.18804 199.73722,596.74963 C 191.70267,576.51159 187.48453,555.27168 187.28366,533.23026 C 188.08711,512.79185 191.90353,493.15495 199.13463,474.7203 C 206.36573,456.08528 215.60547,438.45214 227.05471,422.02126 C 238.50395,405.59038 250.35492,390.56214 262.60762,377.13691 C 275.06117,363.91206 291.33114,346.88005 311.81926,326.24126 z "
       inkscape:export-filename="/home/francisco/Desktop/treble_clef.png"
       inkscape:export-xdpi="31.780001"
       inkscape:export-ydpi="31.780001" />
    <g
       transform="matrix(10.588741,0,0,10.588741,3084.8853,187.99716)"
       id="g2176">
      <g
         transform="matrix(1.275996,0,0,1,114.504,98.64764)"
         id="g2132">
        <path
           d="M -89.36166,-81.968079 L 105.71594,-81.968079"
           style="fill:none;fill-rule:evenodd;stroke:#131516;stroke-width:0.84781325"
           id="path2134" />
        <path
           d="M -89.36166,-48.462889 L 105.71594,-48.462889"
           style="fill:none;fill-rule:evenodd;stroke:#131516;stroke-width:0.84781325"
           id="path2136" />
        <path
           d="M -89.36166,-59.644789 L 105.71594,-59.644789"
           style="fill:none;fill-rule:evenodd;stroke:#131516;stroke-width:0.84781325"
           id="path2138" />
        <path
           d="M -89.36166,-70.806439 L 105.71594,-70.806439"
           style="fill:none;fill-rule:evenodd;stroke:#131516;stroke-width:0.84781325"
           id="path2140" />
        <path
           d="M -89.36166,-37.301239 L 105.71594,-37.301239"
           style="fill:none;fill-rule:evenodd;stroke:#131516;stroke-width:0.84781325"
           id="path2142" />
      </g>
      <g
         transform="translate(-492.1,-101.934)"
         id="g1683">
        <path
           d="M 544.58496,128.88191 C 545.21972,128.2081 545.8789,127.70517 546.5625,127.37312 C 547.24608,127.0411 547.95409,126.87509 548.68652,126.87508 C 550.083,126.87509 551.33788,127.36825 552.45117,128.35457 C 553.56444,129.34091 554.12108,130.82528 554.12109,132.80769 C 554.12108,134.94637 553.4912,136.67 552.23145,137.97859 C 550.97167,139.27742 549.32616,139.92683 547.29492,139.92683 C 545.14648,139.92683 543.44238,139.15047 542.18262,137.59773 C 540.72754,135.7911 540,133.31063 540,130.15633 C 540,126.58212 540.8789,123.70126 542.63672,121.51375 C 544.19921,119.57041 546.1328,118.59873 548.4375,118.59871 C 549.9121,118.59873 551.09374,118.96494 551.98242,119.69734 C 552.88084,120.42978 553.33006,121.28427 553.33008,122.26082 C 553.33006,122.96396 553.11522,123.54013 552.68555,123.98933 C 552.25585,124.43857 551.71874,124.66318 551.07422,124.66316 C 550.5078,124.66318 550.03417,124.46786 549.65332,124.07722 C 549.27245,123.68662 549.08202,123.19833 549.08203,122.61238 C 549.08202,122.17295 549.20897,121.74326 549.46289,121.32332 C 549.60936,121.0792 549.68261,120.879 549.68262,120.72273 C 549.68261,120.47861 549.58007,120.2833 549.375,120.1368 C 549.16991,119.98056 548.85741,119.90244 548.4375,119.90242 C 547.21679,119.90244 546.29882,120.58603 545.68359,121.9532 C 544.92187,123.6329 544.55566,125.94247 544.58496,128.88191 M 547.41211,128.80867 C 546.67968,128.80868 546.0205,129.20907 545.43457,130.00984 C 544.84863,130.81063 544.55566,131.95809 544.55566,133.45222 C 544.55566,135.16121 544.86816,136.50887 545.49316,137.49519 C 545.93261,138.19832 546.52343,138.54988 547.26563,138.54988 C 548.01757,138.54988 548.64257,138.16902 549.14063,137.4073 C 549.63866,136.63582 549.88768,135.33699 549.8877,133.51082 C 549.88768,131.74325 549.65819,130.51766 549.19922,129.83406 C 548.74022,129.15048 548.14452,128.80868 547.41211,128.80867"
           style="font-size:30px;font-style:normal;font-variant:normal;font-weight:bold;font-stretch:normal;text-align:start;line-height:125%;writing-mode:lr-tb;text-anchor:start;fill:#000000;fill-opacity:1;stroke:none;stroke-width:1px;stroke-linecap:butt;stroke-linejoin:miter;stroke-opacity:1;font-family:Century Schoolbook"
           id="path1703" />
        <path
           d="M 549.53613,148.86014 C 551.2744,149.60234 552.47069,150.42265 553.125,151.32108 C 553.78905,152.20976 554.12108,153.3328 554.12109,154.69022 C 554.12108,156.67264 553.47166,158.28397 552.17285,159.5242 C 550.87401,160.76443 549.11132,161.38455 546.88477,161.38455 C 544.72656,161.38455 543.0371,160.88651 541.81641,159.89041 C 540.60547,158.89432 540,157.61991 540,156.06717 C 540,154.91483 540.33691,153.94315 541.01074,153.15213 C 541.69433,152.36112 542.91503,151.66288 544.67285,151.0574 C 543.19824,150.34452 542.18261,149.58281 541.62598,148.77225 C 541.06933,147.96171 540.79101,146.99003 540.79102,145.85721 C 540.79101,144.26543 541.38672,142.90312 542.57813,141.77029 C 543.77929,140.62774 545.28808,140.05645 547.10449,140.05643 C 548.90136,140.05645 550.35155,140.49102 551.45508,141.36014 C 552.55858,142.2293 553.11034,143.24004 553.11035,144.39236 C 553.11034,145.24199 552.85155,146.02324 552.33398,146.73611 C 551.81639,147.44902 550.88378,148.15703 549.53613,148.86014 M 548.4082,148.44998 C 549.19921,147.85429 549.73143,147.29765 550.00488,146.78006 C 550.28807,146.25273 550.42968,145.6082 550.42969,144.84647 C 550.42968,143.80156 550.11229,142.96172 549.47754,142.32693 C 548.84276,141.68242 548.00292,141.36016 546.95801,141.36014 C 545.98144,141.36016 545.19042,141.64824 544.58496,142.2244 C 543.98925,142.79082 543.6914,143.50859 543.69141,144.37772 C 543.6914,145.19804 543.9746,145.90117 544.54102,146.48709 C 545.11718,147.06328 546.40624,147.71757 548.4082,148.44998 M 545.93262,151.61404 C 544.99511,152.01444 544.30663,152.55155 543.86719,153.22537 C 543.42773,153.88944 543.208,154.76346 543.20801,155.84744 C 543.208,157.16581 543.56933,158.19608 544.29199,158.93826 C 545.01464,159.67069 545.98144,160.0369 547.19238,160.0369 C 548.45214,160.0369 549.46776,159.69022 550.23926,158.99686 C 551.02049,158.29373 551.41112,157.3953 551.41113,156.30154 C 551.41112,155.24686 551.03026,154.40702 550.26855,153.78201 C 549.50682,153.15702 548.06151,152.43437 545.93262,151.61404"
           style="font-size:30px;font-style:normal;font-variant:normal;font-weight:bold;font-stretch:normal;text-align:start;line-height:125%;writing-mode:lr-tb;text-anchor:start;fill:#000000;fill-opacity:1;stroke:none;stroke-width:1px;stroke-linecap:butt;stroke-linejoin:miter;stroke-opacity:1;font-family:Century Schoolbook"
           id="path1705" />
      </g>
      <g
         transform="translate(61.38358,-990.7644)"
         id="g2112">
        <path
           d="M 55.754151,1050.7599 C 59.149991,1048.9399 60.959431,1045.6453 59.846371,1043.1669 C 58.659111,1040.5233 54.579361,1039.7772 50.739791,1041.5015 C 46.900231,1043.2259 44.747631,1046.7709 45.934891,1049.4146 C 47.122161,1052.0582 51.201901,1052.8043 55.041471,1051.0799 C 55.281441,1050.9722 55.527751,1050.8812 55.754151,1050.7599 z "
           style="opacity:0.9;fill:#000000;fill-opacity:1;fill-rule:evenodd;stroke:none;stroke-width:0.2;stroke-miterlimit:4;stroke-dashoffset:0;stroke-opacity:1"
           id="path2114" />
        <path
           d="M 59.386651,1044.4265 L 59.386651,1010.8389"
           style="fill:none;fill-opacity:0.75;fill-rule:evenodd;stroke:#000000;stroke-width:1.5;stroke-linecap:butt;stroke-linejoin:miter;stroke-miterlimit:4;stroke-dasharray:none;stroke-opacity:1"
           id="path2116" />
      </g>
      <g
         transform="translate(80.0871,-991.1184)"
         id="g2118">
        <path
           d="M 10.145751,1051.1135 C 13.541591,1049.2935 15.351031,1045.9989 14.237971,1043.5205 C 13.050711,1040.8769 8.9709609,1040.1308 5.1313909,1041.8551 C 1.2918309,1043.5795 -0.86076913,1047.1245 0.32649087,1049.7682 C 1.5137609,1052.4118 5.5935009,1053.1579 9.4330709,1051.4335 C 9.6730409,1051.3258 9.9193509,1051.2348 10.145751,1051.1135 z "
           style="opacity:0.9;fill:#000000;fill-opacity:1;fill-rule:evenodd;stroke:none;stroke-width:0.2;stroke-miterlimit:4;stroke-dashoffset:0;stroke-opacity:1"
           id="path2120" />
        <path
           d="M 13.778251,1044.7801 L 13.778251,1011.1925"
           style="fill:none;fill-opacity:0.75;fill-rule:evenodd;stroke:#000000;stroke-width:1.5;stroke-linecap:butt;stroke-linejoin:miter;stroke-miterlimit:4;stroke-dasharray:none;stroke-opacity:1"
           id="path2122" />
      </g>
      <rect
         width="55.419266"
         height="4.4712305"
         x="-148.50671"
         y="-23.08469"
         transform="scale(-1,-1)"
         style="opacity:0.9;fill:#000000;fill-opacity:1;fill-rule:evenodd;stroke:none;stroke-width:0.5;stroke-miterlimit:4;stroke-dasharray:none;stroke-dashoffset:0;stroke-opacity:1"
         id="rect2124" />
      <g
         transform="translate(88.39599,-990.7644)"
         id="g2126">
        <path
           d="M 55.754151,1050.7599 C 59.149991,1048.9399 60.959431,1045.6453 59.846371,1043.1669 C 58.659111,1040.5233 54.579361,1039.7772 50.739791,1041.5015 C 46.900231,1043.2259 44.747631,1046.7709 45.934891,1049.4146 C 47.122161,1052.0582 51.201901,1052.8043 55.041471,1051.0799 C 55.281441,1050.9722 55.527751,1050.8812 55.754151,1050.7599 z "
           style="opacity:0.9;fill:#000000;fill-opacity:1;fill-rule:evenodd;stroke:none;stroke-width:0.2;stroke-miterlimit:4;stroke-dashoffset:0;stroke-opacity:1"
           id="path2128" />
        <path
           d="M 59.386651,1044.4265 L 59.386651,1010.8389"
           style="fill:none;fill-opacity:0.75;fill-rule:evenodd;stroke:#000000;stroke-width:1.5;stroke-linecap:butt;stroke-linejoin:miter;stroke-miterlimit:4;stroke-dasharray:none;stroke-opacity:1"
           id="path2130" />
      </g>
      <path
         d="M 23.658864,45.319323 C 22.501724,45.641023 21.458394,46.360118 20.490944,47.457684 C 19.523494,48.574174 19.049264,49.804204 19.049264,51.128853 C 19.049264,51.961489 19.333804,52.907667 19.883924,53.910615 C 20.434034,54.932486 21.268694,55.670505 22.349964,56.143594 C 22.710384,56.219288 22.881114,56.408523 22.881114,56.673453 C 22.881114,56.768071 22.748324,56.862689 22.425844,56.938383 C 20.699614,56.503141 19.276894,55.575887 18.176654,54.194468 C 17.076424,52.794125 16.507334,51.204547 16.469394,49.387886 C 16.526304,47.438761 17.114364,45.6221 18.233564,43.956827 C 19.371744,42.272632 20.832394,41.080448 22.615534,40.380276 L 21.306634,33.662416 C 18.385324,36.084631 16.014124,38.601463 14.174084,41.25076 C 12.334034,43.881133 11.385554,46.738589 11.309674,49.823128 C 11.347614,51.204547 11.632154,52.548119 12.163304,53.834921 C 12.694454,55.140646 13.491174,56.313906 14.553474,57.392548 C 16.697034,59.530909 19.485564,60.647399 22.881114,60.76094 C 24.038254,60.685246 25.271274,60.477087 26.599144,60.136463 L 23.658864,45.319323 z M 25.024674,45.130088 L 27.983924,59.682298 C 30.905234,58.509037 32.365896,55.954358 32.365896,52.056107 C 32.195176,50.750382 31.815774,49.577122 31.170814,48.536327 C 30.544814,47.476608 29.710154,46.643972 28.647864,46.038418 C 27.585564,45.432864 26.390484,45.130088 25.024674,45.130088 z M 21.135914,25.449596 C 21.761904,25.071125 22.482754,24.4088 23.260504,23.481546 C 24.038254,22.573216 24.797034,21.494574 25.517884,20.283466 C 26.257694,19.053436 26.845754,17.804481 27.282054,16.536604 C 27.718354,15.287649 27.927014,14.095466 27.927014,12.9979 C 27.927014,12.524811 27.889074,12.051722 27.794234,11.635404 C 27.718354,10.954156 27.509684,10.424297 27.149264,10.064749 C 26.788844,9.724126 26.333574,9.53489 25.764484,9.53489 C 24.626314,9.53489 23.601954,10.235061 22.691414,11.635404 C 21.989544,12.846511 21.401484,14.284701 20.984154,15.912126 C 20.547854,17.558475 20.301254,19.1859 20.263314,20.832249 C 20.358164,22.705681 20.661674,24.238488 21.135914,25.449596 z M 19.940824,26.547161 C 19.087194,23.481546 18.612964,20.359161 18.518114,17.180004 C 18.537084,15.136261 18.745744,13.224982 19.144104,11.446169 C 19.523494,9.667355 20.073614,8.134547 20.794464,6.809899 C 21.496334,5.48525 22.312024,4.482302 23.222564,3.801054 C 24.038254,3.195501 24.626314,2.8738 24.948794,2.8738 C 25.195404,2.8738 25.404064,2.968418 25.593764,3.13873 C 25.783454,3.309042 26.030064,3.592895 26.333574,3.971366 C 28.590954,7.169446 29.729124,11.02985 29.729124,15.533655 C 29.729124,17.672017 29.444584,19.753607 28.875494,21.835198 C 28.325374,23.897864 27.509684,25.865914 26.428424,27.701498 C 25.328184,29.556006 24.038254,31.164508 22.539664,32.545927 L 24.076194,40.001806 C 24.910854,39.907188 25.479944,39.831494 25.802424,39.831494 C 27.244114,39.831494 28.534044,40.13427 29.729124,40.739824 C 30.924204,41.345378 31.948564,42.15909 32.783226,43.199885 C 33.617886,44.221757 34.262856,45.395017 34.718126,46.719666 C 35.154426,48.044314 35.401026,49.425733 35.401026,50.863923 C 35.401026,53.096902 34.812976,55.140646 33.636856,56.97623 C 32.460746,58.811814 30.696574,60.155386 28.325374,61.02587 C 28.477134,61.953124 28.742704,63.296696 29.141064,65.018739 C 29.520464,66.759705 29.805004,68.141124 29.994704,69.162996 C 30.184394,70.184868 30.260274,71.168892 30.260274,72.133993 C 30.260274,73.628954 29.899854,74.953602 29.179004,76.126862 C 28.439194,77.300122 27.452774,78.208452 26.200784,78.851852 C 24.967764,79.495252 23.601954,79.816952 22.122334,79.816952 C 20.035674,79.816952 18.214594,79.230322 16.659094,78.075992 C 15.103584,76.902732 14.268924,75.332073 14.193054,73.326177 C 14.249954,72.43677 14.458624,71.604134 14.838014,70.809345 C 15.217404,70.014556 15.729584,69.371155 16.393524,68.879143 C 17.038484,68.368207 17.816234,68.103277 18.707804,68.046507 C 19.447624,68.046507 20.149494,68.254666 20.813434,68.65206 C 21.458394,69.068378 21.989544,69.617161 22.387904,70.317333 C 22.767294,71.017504 22.975964,71.79337 22.975964,72.626006 C 22.975964,73.742495 22.596564,74.688673 21.837784,75.464538 C 21.079004,76.240402 20.111554,76.637802 18.954414,76.637802 L 18.518114,76.637802 C 19.257924,77.773212 20.471974,78.359842 22.160264,78.359842 C 23.013904,78.359842 23.886504,78.170602 24.759104,77.829982 C 25.650674,77.470432 26.390484,76.997342 27.016474,76.391792 C 27.642474,75.786239 28.059804,75.142838 28.230534,74.46159 C 28.553014,73.685725 28.704764,72.607082 28.704764,71.26351 C 28.704764,70.35518 28.609924,69.446849 28.439194,68.538519 C 28.268474,67.649112 28.002894,66.456928 27.642474,64.980892 C 27.282054,63.523778 27.016474,62.388365 26.864724,61.6125 C 25.726544,61.896353 24.550434,62.047741 23.317414,62.047741 C 21.249734,62.047741 19.295864,61.631423 17.455814,60.779863 C 15.615764,59.928304 14.003354,58.755044 12.599604,57.24116 C 11.214824,55.727276 10.133564,54.024156 9.3558036,52.093954 C 8.5970236,50.182675 8.1986636,48.176779 8.1796936,46.095189 C 8.2555736,44.164987 8.6159936,42.310479 9.2989036,40.569512 C 9.9818036,38.809622 10.854404,37.144349 11.935674,35.592618 C 13.016934,34.040887 14.136144,32.621621 15.293284,31.353743 C 16.469394,30.104789 18.005934,28.496287 19.940824,26.547161 z "
         style="fill:#131516;fill-rule:evenodd;stroke:#131516;stroke-width:0.05683964"
         id="path2150" />
      <g
         transform="translate(143.3958,-990.3704)"
         id="g2154">
        <path
           d="M 55.754151,1050.7599 C 59.149991,1048.9399 60.959431,1045.6453 59.846371,1043.1669 C 58.659111,1040.5233 54.579361,1039.7772 50.739791,1041.5015 C 46.900231,1043.2259 44.747631,1046.7709 45.934891,1049.4146 C 47.122161,1052.0582 51.201901,1052.8043 55.041471,1051.0799 C 55.281441,1050.9722 55.527751,1050.8812 55.754151,1050.7599 z "
           style="opacity:0.9;fill:#000000;fill-opacity:1;fill-rule:evenodd;stroke:none;stroke-width:0.2;stroke-miterlimit:4;stroke-dashoffset:0;stroke-opacity:1"
           id="path2156" />
        <path
           d="M 59.386651,1044.4265 L 59.386651,1010.8389"
           style="fill:none;fill-opacity:0.75;fill-rule:evenodd;stroke:#000000;stroke-width:1.5;stroke-linecap:butt;stroke-linejoin:miter;stroke-miterlimit:4;stroke-dasharray:none;stroke-opacity:1"
           id="path2158" />
      </g>
      <g
         transform="translate(162.0993,-990.7244)"
         id="g2160">
        <path
           d="M 10.145751,1051.1135 C 13.541591,1049.2935 15.351031,1045.9989 14.237971,1043.5205 C 13.050711,1040.8769 8.9709609,1040.1308 5.1313909,1041.8551 C 1.2918309,1043.5795 -0.86076913,1047.1245 0.32649087,1049.7682 C 1.5137609,1052.4118 5.5935009,1053.1579 9.4330709,1051.4335 C 9.6730409,1051.3258 9.9193509,1051.2348 10.145751,1051.1135 z "
           style="opacity:0.9;fill:#000000;fill-opacity:1;fill-rule:evenodd;stroke:none;stroke-width:0.2;stroke-miterlimit:4;stroke-dashoffset:0;stroke-opacity:1"
           id="path2162" />
        <path
           d="M 13.778251,1044.7801 L 13.778251,1011.1925"
           style="fill:none;fill-opacity:0.75;fill-rule:evenodd;stroke:#000000;stroke-width:1.5;stroke-linecap:butt;stroke-linejoin:miter;stroke-miterlimit:4;stroke-dasharray:none;stroke-opacity:1"
           id="path2164" />
      </g>
      <rect
         width="55.419266"
         height="4.4712305"
         x="-230.51892"
         y="-23.478252"
         transform="scale(-1,-1)"
         style="opacity:0.9;fill:#000000;fill-opacity:1;fill-rule:evenodd;stroke:none;stroke-width:0.5;stroke-miterlimit:4;stroke-dasharray:none;stroke-dashoffset:0;stroke-opacity:1"
         id="rect2166" />
      <g
         transform="translate(170.4082,-990.3704)"
         id="g2168">
        <path
           d="M 55.754151,1050.7599 C 59.149991,1048.9399 60.959431,1045.6453 59.846371,1043.1669 C 58.659111,1040.5233 54.579361,1039.7772 50.739791,1041.5015 C 46.900231,1043.2259 44.747631,1046.7709 45.934891,1049.4146 C 47.122161,1052.0582 51.201901,1052.8043 55.041471,1051.0799 C 55.281441,1050.9722 55.527751,1050.8812 55.754151,1050.7599 z "
           style="opacity:0.9;fill:#000000;fill-opacity:1;fill-rule:evenodd;stroke:none;stroke-width:0.2;stroke-miterlimit:4;stroke-dashoffset:0;stroke-opacity:1"
           id="path2170" />
        <path
           d="M 59.386651,1044.4265 L 59.386651,1010.8389"
           style="fill:none;fill-opacity:0.75;fill-rule:evenodd;stroke:#000000;stroke-width:1.5;stroke-linecap:butt;stroke-linejoin:miter;stroke-miterlimit:4;stroke-dasharray:none;stroke-opacity:1"
           id="path2172" />
      </g>
      <path
         d="M 249.17775,16.499451 L 249.17775,61.159214"
         style="fill:none;fill-opacity:0.75;fill-rule:evenodd;stroke:#000000;stroke-width:1px;stroke-linecap:butt;stroke-linejoin:miter;stroke-opacity:1"
         id="path2174" />
    </g>
  </g>
</svg>
