<?xml version="1.0" encoding="UTF-8" standalone="no"?>
<!-- Created with Inkscape (http://www.inkscape.org/) -->
<svg
   xmlns:svg="http://www.w3.org/2000/svg"
   xmlns="http://www.w3.org/2000/svg"
   version="1.0"
   width="97.68"
   height="49.919998"
   id="svg1738">
  <defs
     id="defs1741" />
  <g
     transform="translate(-365.6413,-8.718565)"
     id="g11065">
    <path
       d="M 451.09297,49.38984 C 454.48881,47.56987 456.29825,44.27529 455.18519,41.79688 C 453.99793,39.15324 449.91818,38.40716 446.07861,40.13151 C 442.23905,41.85587 440.08645,45.40091 441.27371,48.04454 C 442.46098,50.68818 446.54072,51.43426 450.38029,49.70991 C 450.62026,49.60214 450.86657,49.51117 451.09297,49.38984 z "
       style="opacity:0.9;fill:#000000;fill-opacity:1;fill-rule:evenodd;stroke:none;stroke-width:0.2;stroke-miterlimit:4;stroke-dashoffset:0;stroke-opacity:1"
       id="path11056" />
    <path
       d="M 454.72547,43.05645 L 454.72547,9.46888"
       style="fill:none;fill-opacity:0.75;fill-rule:evenodd;stroke:#000000;stroke-width:1.5;stroke-linecap:butt;stroke-linejoin:miter;stroke-miterlimit:4;stroke-dasharray:none;stroke-opacity:1"
       id="path11058" />
    <path
       d="M 418 179.92468 A 2.25 2.3125 0 1 1  413.5,179.92468 A 2.25 2.3125 0 1 1  418 179.92468 z"
       transform="matrix(-1,0,0,-1,876.8202,224.8988)"
       style="opacity:0.9;fill:#000000;fill-opacity:1;fill-rule:evenodd;stroke:none;stroke-width:1.5;stroke-miterlimit:4;stroke-dasharray:none;stroke-dashoffset:0;stroke-opacity:1"
       id="path11060" />
  </g>
  <g
     transform="translate(-397.4142,-34.11441)"
     id="g12994">
    <path
       d="M 431.56955,65.847427 C 428.17371,67.667397 426.36427,70.961977 427.47733,73.440387 C 428.66459,76.084027 432.74434,76.830107 436.58391,75.105757 C 440.42347,73.381397 442.57607,69.836357 441.38881,67.192727 C 440.20154,64.549087 436.1218,63.803007 432.28223,65.527357 C 432.04226,65.635127 431.79595,65.726097 431.56955,65.847427 z "
       style="opacity:0.9;fill:#000000;fill-opacity:1;fill-rule:evenodd;stroke:none;stroke-width:0.2;stroke-miterlimit:4;stroke-dashoffset:0;stroke-opacity:1"
       id="path12112" />
    <path
       d="M 441.18705,68.62194 L 441.18705,35.03437"
       style="fill:none;fill-opacity:0.75;fill-rule:evenodd;stroke:#000000;stroke-width:1.5;stroke-linecap:butt;stroke-linejoin:miter;stroke-miterlimit:4;stroke-dasharray:none;stroke-opacity:1"
       id="path12114" />
    <path
       d="M 441.1824,35.99421 C 440.6199,42.30671 446.02495,44.56795 448.6824,47.49421 C 451.20836,50.27568 452.13107,53.48393 452.02788,56.48981 C 452.00033,57.29238 451.78245,60.76992 449.41343,64.25653 C 452.58135,55.50942 449.6319,51.99847 446.75047,49.20495 C 443.26053,45.82149 440.66435,42.63277 441.1824,35.99421 z "
       style="fill:#000000;fill-opacity:1;fill-rule:evenodd;stroke:none;stroke-width:1px;stroke-linecap:butt;stroke-linejoin:miter;stroke-opacity:1"
       id="path12116" />
  </g>
  <g
     transform="matrix(-1.000014,0,0,-1.000014,313.2873,340.3265)"
     id="g3339">
    <path
       d="M 303.13715,299.65106 C 299.74131,301.47103 297.93187,304.76561 299.04493,307.24402 C 300.23219,309.88766 304.31194,310.63374 308.15151,308.90939 C 311.99107,307.18503 314.14367,303.63999 312.95641,300.99636 C 311.76914,298.35272 307.6894,297.60664 303.84983,299.33099 C 303.60986,299.43876 303.36355,299.52973 303.13715,299.65106 z "
       style="opacity:0.9;fill:#000000;fill-opacity:1;fill-rule:evenodd;stroke:none;stroke-width:0.2;stroke-miterlimit:4;stroke-dashoffset:0;stroke-opacity:1"
       id="path3341" />
    <path
       d="M 299.50465,305.98445 L 299.50465,339.57202"
       style="fill:none;fill-opacity:0.75;fill-rule:evenodd;stroke:#000000;stroke-width:1.5;stroke-linecap:butt;stroke-linejoin:miter;stroke-miterlimit:4;stroke-dasharray:none;stroke-opacity:1"
       id="path3343" />
  </g>
  <path
     d="M 36.836148,43.979598 C 36.836148,43.979598 29.120329,47.461498 22.756157,47.461498 C 16.825274,47.461498 9.604034,43.855298 9.604034,43.855298 C 9.604034,43.855298 16.453815,49.919998 22.784847,49.919998 C 29.115889,49.919998 36.836148,43.979598 36.836148,43.979598 z "
     style="fill:#000000;fill-opacity:1;fill-rule:evenodd;stroke:none;stroke-width:1px;stroke-linecap:butt;stroke-linejoin:miter;stroke-opacity:1"
     id="path2088" />
  <text
     x="54.165699"
     y="43.588924"
     style="font-size:24px;font-style:normal;font-variant:normal;font-weight:bold;font-stretch:normal;text-align:start;line-height:125%;writing-mode:lr-tb;text-anchor:start;fill:#000000;fill-opacity:1;stroke:none;stroke-width:1px;stroke-linecap:butt;stroke-linejoin:miter;stroke-opacity:1;font-family:Times New Roman"
     id="text2963"
     xml:space="preserve"><tspan
       x="54.165699"
       y="43.588924"
       id="tspan2965">=</tspan></text>
</svg>
