<?xml version="1.0" encoding="UTF-8" standalone="no"?>
<!-- Created with Inkscape (http://www.inkscape.org/) -->
<svg
   xmlns:svg="http://www.w3.org/2000/svg"
   xmlns="http://www.w3.org/2000/svg"
   version="1.0"
   width="345"
   height="393"
   id="svg9210">
  <defs
     id="defs9212" />
  <g
     id="layer1">
    <path
       d="M 9.125,6.9999796 C 4.03428,7.1821896 0,9.5825696 0,12.49998 C 0,15.53598 4.368,17.99998 9.75,17.99998 C 15.132,17.99998 19.5,15.53598 19.5,12.49998 C 19.5,9.4639796 15.132,6.9999796 9.75,6.9999796 C 9.53977,6.9999796 9.33194,6.9925696 9.125,6.9999796 z M 7.5,8.0624796 C 8.8579,7.9234696 10.56798,8.5531096 12,9.8437296 C 14.14502,11.77694 14.87122,14.48755 13.625,15.90623 L 13.59375,15.93748 C 12.32289,17.34758 9.53145,16.91225 7.375,14.96873 C 5.21855,13.02521 4.51039,10.28508 5.78125,8.8749796 C 6.20818,8.4012796 6.81306,8.1327996 7.5,8.0624796 z "
       style="opacity:0.9;fill:black;fill-opacity:1;fill-rule:nonzero;stroke:none;stroke-width:0.2;stroke-miterlimit:4;stroke-dasharray:none;stroke-dashoffset:0;stroke-opacity:1"
       id="path3937" />
    <g
       transform="matrix(-1,0,0,-1,247.8306,309.9348)"
       id="g10997">
      <path
         d="M 237.68484,218.18353 C 234.289,220.0035 232.47956,223.29808 233.59262,225.77649 C 234.77988,228.42013 238.85963,229.16621 242.6992,227.44186 C 246.53876,225.7175 248.69136,222.17246 247.5041,219.52883 C 246.31683,216.88519 242.23709,216.13911 238.39752,217.86346 C 238.15755,217.97123 237.91124,218.0622 237.68484,218.18353 z M 238.79457,220.42569 C 239.0358,220.30136 239.28005,220.20766 239.53576,220.09282 C 242.80883,218.62288 245.96997,218.55375 246.59187,219.93851 C 247.21377,221.32327 245.06209,223.64013 241.78902,225.11008 C 238.51594,226.58002 235.3548,226.64915 234.73291,225.26439 C 234.15959,223.98781 235.94804,221.89278 238.79457,220.42569 z "
         style="opacity:0.9;fill:black;fill-opacity:1;fill-rule:evenodd;stroke:none;stroke-width:0.2;stroke-miterlimit:4;stroke-dasharray:none;stroke-dashoffset:0;stroke-opacity:1"
         id="path10999" />
      <path
         d="M 234.05234,224.51692 L 234.05234,258.10449"
         style="fill:none;fill-opacity:0.75;fill-rule:evenodd;stroke:black;stroke-width:1.5;stroke-linecap:butt;stroke-linejoin:miter;stroke-miterlimit:4;stroke-dasharray:none;stroke-opacity:1"
         id="path11001" />
    </g>
    <g
       transform="matrix(-1,0,0,-1,313.2829,466.4028)"
       id="g11029">
      <path
         d="M 303.13715,299.65106 C 299.74131,301.47103 297.93187,304.76561 299.04493,307.24402 C 300.23219,309.88766 304.31194,310.63374 308.15151,308.90939 C 311.99107,307.18503 314.14367,303.63999 312.95641,300.99636 C 311.76914,298.35272 307.6894,297.60664 303.84983,299.33099 C 303.60986,299.43876 303.36355,299.52973 303.13715,299.65106 z "
         style="opacity:0.9;fill:black;fill-opacity:1;fill-rule:evenodd;stroke:none;stroke-width:0.2;stroke-miterlimit:4;stroke-dashoffset:0;stroke-opacity:1"
         id="path11031" />
      <path
         d="M 299.50465,305.98445 L 299.50465,339.57202"
         style="fill:none;fill-opacity:0.75;fill-rule:evenodd;stroke:black;stroke-width:1.5;stroke-linecap:butt;stroke-linejoin:miter;stroke-miterlimit:4;stroke-dasharray:none;stroke-opacity:1"
         id="path11033" />
    </g>
    <path
       d="M 11.12588,202.42334 L 12.09141,202.42334 C 12.3328,203.96287 12.63452,205.25933 13.03683,206.31269 C 13.41902,207.3458 13.88167,208.23711 14.38455,208.98663 C 14.90755,209.73614 15.69204,210.68822 16.73803,211.86313 C 17.78403,213.03804 18.60875,214.03064 19.25244,214.86118 C 21.1835,217.3528 22.14903,219.96596 22.14903,222.68041 C 22.14903,225.47588 20.98235,228.87907 18.60875,232.88997 L 17.96506,232.88997 C 18.26679,232.18097 18.62887,231.37069 19.03117,230.45912 C 19.41336,229.5273 19.75532,228.69676 20.03693,227.94724 C 20.29843,227.19773 20.5197,226.44822 20.68062,225.69871 C 20.82143,224.9492 20.90189,224.21994 20.90189,223.49069 C 20.90189,222.33604 20.68062,221.18138 20.21797,220.02673 C 19.75532,218.85182 19.09152,217.77819 18.26679,216.7856 C 17.42195,215.793 16.47653,215.00298 15.41043,214.37501 C 14.34432,213.76729 13.23798,213.42292 12.09141,213.36215 L 12.09141,236.29316 C 12.09141,237.58961 11.70922,238.76452 10.90461,239.77737 C 10.12012,240.79023 9.09424,241.58025 7.8471,242.12719 C 6.62007,242.67413 5.39304,242.93748 4.16601,242.93748 C 2.99932,242.93748 2.01368,242.63362 1.22918,242.04616 C 0.4648,241.45871 0.0625,240.58766 0.0625,239.45326 C 0.0625,238.25809 0.4648,237.14395 1.2493,236.11084 C 2.03379,235.09799 3.03955,234.28771 4.24647,233.70025 C 5.45338,233.1128 6.62007,232.80894 7.74652,232.80894 C 9.31551,232.80894 10.44196,233.1128 11.12588,233.74077 L 11.12588,213.03804 L 11.12588,202.42334 z "
       style="fill:#131516;fill-rule:evenodd;stroke:#131516;stroke-width:0.06055809"
       id="path25" />
    <path
       d="M 10.964776,308.82177 L 10.964776,277.50434 L 12.010758,277.50434 C 12.151556,279.06414 12.49351,280.27956 13.056731,281.1101 C 13.599832,281.94064 14.505006,282.93324 15.792355,284.04738 C 17.059593,285.18177 18.045227,286.21488 18.769364,287.14671 C 19.815337,288.46342 20.599813,289.73961 21.163034,290.95504 C 21.706135,292.17046 21.98774,293.5682 21.98774,295.16851 C 21.98774,296.40419 21.806713,297.68039 21.424529,299.01735 C 22.128548,299.96943 22.470502,301.46846 22.470502,303.47391 C 22.470502,304.77036 22.309585,306.04656 21.96763,307.32275 C 21.605566,308.59895 21.102685,309.71308 20.438896,310.64491 L 19.775107,310.64491 C 21.042346,308.17355 21.665905,306.00604 21.665905,304.16265 C 21.665905,300.63792 19.6343,297.84244 15.550979,295.77622 C 15.249254,295.61416 14.826841,295.35082 14.28374,294.96594 C 13.72052,294.60131 13.277997,294.29745 12.996382,294.11514 C 12.694657,293.93283 12.372822,293.75051 12.010758,293.62897 L 12.010758,311.45519 C 12.010758,312.67062 11.608455,313.78476 10.823978,314.77735 C 10.019382,315.76998 9.0136288,316.53968 7.7866296,317.10688 C 6.5596203,317.65388 5.3527207,317.93748 4.1659407,317.93748 C 3.0193901,317.93748 2.073996,317.67408 1.3297386,317.14748 C 0.5653715,316.62078 0.1429586,315.83068 0.0625,314.77735 C 0.0625,313.58219 0.4648032,312.44779 1.2895093,311.37416 C 2.1142254,310.30054 3.1601977,309.44974 4.4073166,308.82177 C 5.6745552,308.1938 6.8814548,307.88995 8.0682348,307.88995 C 9.2952438,307.88995 10.260758,308.1938 10.964776,308.82177 z M 12.252134,285.03997 C 12.252134,286.8226 12.714777,288.36213 13.640061,289.65859 C 14.585465,290.95504 15.913043,292.4338 17.663043,294.11514 C 19.392924,295.79648 20.479125,297.05242 20.921658,297.90321 C 21.022226,297.37653 21.062456,296.80933 21.062456,296.20162 C 21.062456,294.86465 20.80097,293.60871 20.257859,292.47432 C 19.714758,291.31967 19.01074,290.28655 18.165914,289.39524 C 17.321089,288.50393 16.395804,287.71391 15.410171,287.00491 C 14.404428,286.29591 13.358456,285.64769 12.252134,285.03997 z "
       style="fill:#131516;fill-rule:evenodd;stroke:#131516;stroke-width:0.06055758"
       id="path27" />
    <path
       d="M 11.04542,383.8219 L 11.04542,346.6299 L 12.03107,346.6299 C 12.15176,347.9871 12.41326,349.0607 12.81556,349.8102 C 13.21787,350.5597 13.80121,351.3295 14.62594,352.0993 C 15.43055,352.869 16.57711,353.9427 18.04553,355.3404 C 20.68062,357.8928 21.988112,360.8909 21.988112,364.3751 C 21.988112,365.5702 21.827192,366.7451 21.505352,367.9403 C 21.827192,368.9532 21.988112,370.0471 21.988112,371.1814 C 21.988112,372.0728 21.867422,373.1059 21.585812,374.2605 C 22.229502,375.0911 22.551342,376.4078 22.551342,378.2309 C 22.551342,379.4868 22.390422,380.7833 22.028342,382.0798 C 21.686382,383.3762 21.1835,384.5309 20.49959,385.564 L 19.8559,385.564 C 21.06281,383.0318 21.666272,380.8441 21.666272,379.0007 C 21.666272,377.8258 21.445002,376.7521 20.98235,375.8001 C 20.5197,374.8277 19.87601,373.9567 19.05129,373.1666 C 18.22656,372.3969 17.34149,371.6676 16.37596,370.9991 C 15.41043,370.3509 13.96213,369.3988 12.03107,368.1834 L 12.03107,386.4553 C 12.03107,387.6504 11.62876,388.7443 10.82416,389.7369 C 10.01955,390.7295 9.01378,391.5195 7.78675,392.0867 C 6.55972,392.6539 5.35281,392.9375 4.16601,392.9375 C 2.9591,392.9375 1.97345,392.6337 1.20907,392.0462 C 0.44469,391.4385 0.0625,390.5472 0.0625,389.3723 C 0.0625,388.2176 0.48492,387.144 1.30965,386.1514 C 2.11426,385.1588 3.16025,384.3688 4.40739,383.7611 C 5.65454,383.1736 6.82122,382.89 7.92756,382.89 C 9.23505,382.89 10.28104,383.1939 11.04542,383.8219 z M 12.17188,354.0034 C 12.17188,355.1986 12.45349,356.2317 12.97649,357.0622 C 13.49948,357.9131 14.42478,358.9462 15.73227,360.1616 C 17.03976,361.377 18.06564,362.3696 18.80991,363.1799 C 19.55417,363.9902 20.2582,365.0841 20.90189,366.4413 C 20.98235,365.9551 21.02258,365.4892 21.02258,365.0638 C 21.02258,363.4027 20.58005,361.9037 19.67486,360.5465 C 18.76968,359.169 17.76391,358.0549 16.61734,357.1635 C 15.49089,356.2722 14.00236,355.2189 12.17188,354.0034 z M 12.09142,361.0529 C 12.17188,362.3291 12.53395,363.4635 13.17764,364.4764 C 13.82133,365.4892 14.62594,366.4615 15.61158,367.4136 C 16.59723,368.3455 17.62311,369.2975 18.6691,370.2901 C 19.71509,371.2827 20.45936,372.1943 20.90189,373.0046 C 20.94212,372.7818 20.94212,372.4576 20.94212,372.0322 C 20.94212,367.9403 18.0053,364.2738 12.09142,361.0529 z "
       style="fill:#131516;fill-rule:evenodd;stroke:#131516;stroke-width:0.06055809"
       id="path29" />
    <path
       d="M 77.27711,137.67547 C 78.1102,138.5641 84.49724,146.39515 84.49724,146.39515 C 84.49724,146.39515 80.94271,149.78305 80.94271,153.33758 C 80.94271,157.50303 85.7191,161.27971 85.7191,161.27971 L 85.21925,161.89064 C 83.38645,160.8354 80.27624,160.72432 78.88776,162.33496 C 77.16603,164.33438 81.05379,167.38904 81.05379,167.38904 L 80.60948,167.99998 C 79.27653,167.00027 73.61151,161.66849 75.99971,159.05813 C 77.44373,157.44749 79.22099,156.94764 81.72027,158.28058 L 75,151.33816 C 78.88776,146.56177 79.55423,145.17328 79.55423,143.89588 C 79.55423,141.22999 77.66589,139.34165 76.72172,138.11978 C 76.38848,137.61993 75.77755,137.23115 76.16633,136.89791 C 76.5551,136.62022 76.77726,137.06453 77.27711,137.67547 z "
       id="quarter_rest" />
    <path
       d="M 106.78239,167.74998 L 105.03233,167.74998 L 100.25,149.39015 C 102.72177,151.53789 104.18413,153.31759 106.26721,153.56248 C 106.26721,153.56248 105.46593,152.56014 105.53833,150.80187 C 105.60815,149.10599 106.5251,148.05449 108.34939,147.98926 C 110.11126,147.92626 111.61318,149.63888 111.47632,151.41343 C 111.33902,153.19385 109.59032,154.69521 108.21508,154.68317 C 104.36213,154.64944 102.27474,152.77762 101.05365,150.63126 L 106.78239,167.74998 z "
       style="fill:black;fill-opacity:1;fill-rule:evenodd;stroke:black;stroke-width:0.50000805;stroke-linecap:butt;stroke-linejoin:miter;stroke-miterlimit:4;stroke-dasharray:none;stroke-opacity:1"
       id="path4781" />
    <path
       d="M 81.097529,317.74998 L 91.407239,288.36775 C 89.310549,290.51549 87.609149,292.21462 85.452729,292.85258 C 85.875969,292.04682 86.563139,291.5134 86.556589,290.40447 C 86.548489,289.12165 85.475949,287.16736 82.995619,287.21686 C 80.577789,287.26636 79.675969,288.96047 79.618789,290.57853 C 79.559399,292.25901 80.703419,293.99761 83.067419,294.09827 C 85.440019,294.1993 89.382569,292.56772 90.728619,289.42136 C 90.003199,291.01459 87.500989,298.11487 86.131349,300.9883 C 84.574209,303.23673 82.415469,304.86173 81.250069,305.16508 C 81.959669,303.96843 82.225039,303.32521 82.157239,302.26419 C 82.050499,300.59379 80.705159,299.15679 78.657229,299.13919 C 76.607809,299.12158 75.262489,300.53688 75.250069,302.66508 C 75.237659,304.792 76.892209,306.08687 78.625069,306.10258 C 82.529219,306.13798 84.431569,304.24315 85.849179,301.68653 L 79.440649,317.70614 L 81.097529,317.74998 z "
       style="fill:black;fill-opacity:1;fill-rule:evenodd;stroke:black;stroke-width:0.5;stroke-linecap:butt;stroke-linejoin:miter;stroke-miterlimit:4;stroke-dasharray:none;stroke-opacity:1"
       id="path7438" />
    <path
       d="M 79.760774,392.75 L 81.885782,392.75 L 95.543,353.8277 C 93.446302,355.9754 91.744896,357.6745 89.588469,358.3125 C 90.01171,357.5067 90.698883,356.9733 90.692333,355.8644 C 90.684232,354.5816 89.611689,352.6273 87.13135,352.6768 C 84.713512,352.7263 83.811688,354.4204 83.754508,356.0384 C 83.695118,357.7189 84.839142,359.4575 87.20315,359.5582 C 89.575759,359.6592 93.518322,358.0276 94.864377,354.8813 C 94.138955,356.4745 91.636736,363.5748 90.267091,366.4482 C 88.709946,368.6966 86.551198,370.3216 85.385794,370.625 C 86.095396,369.4283 86.360767,368.7851 86.292967,367.7241 C 86.186227,366.0537 84.840882,364.6167 82.792945,364.5991 C 80.743518,364.5815 79.398193,365.9968 79.385773,368.125 C 79.373363,370.2519 81.027919,371.5468 82.760785,371.5625 C 86.664948,371.5979 88.567305,369.7031 89.98492,367.1464 C 89.98492,367.1464 87.353901,373.4902 85.969746,377.2348 C 85.398094,378.1045 82.656774,380.4223 81.38578,380.6875 C 81.927292,379.8277 82.167933,379.7678 82.135782,378.358 C 82.103632,376.8857 80.578117,375.2356 78.6831,375.1812 C 76.785254,375.1267 75.242448,376.4505 75.250028,378.5259 C 75.257608,380.6001 76.968604,382.149 78.62949,382.1509 C 81.868122,382.1545 84.22326,380.6695 85.327734,378.767 L 79.760774,392.75 z "
       style="fill:black;fill-opacity:1;fill-rule:evenodd;stroke:black;stroke-width:0.50000089;stroke-linecap:butt;stroke-linejoin:miter;stroke-miterlimit:4;stroke-dasharray:none;stroke-opacity:1"
       id="path2254" />
    <rect
       width="15.5"
       height="6"
       x="82.748962"
       y="11.999982"
       style="opacity:0.9;fill:black;fill-opacity:1;fill-rule:evenodd;stroke:none;stroke-width:0.2;stroke-miterlimit:4;stroke-dasharray:none;stroke-dashoffset:0;stroke-opacity:1"
       id="rect8324" />
    <path
       d="M 104.38701,11.71018 L 75.499992,11.71018"
       style="fill:none;fill-opacity:0.75;fill-rule:evenodd;stroke:black;stroke-width:0.99998403px;stroke-linecap:butt;stroke-linejoin:miter;stroke-opacity:1"
       id="path9656" />
    <rect
       width="15.5"
       height="6"
       x="82.748985"
       y="-92.21019"
       transform="scale(1,-1)"
       style="opacity:0.9;fill:black;fill-opacity:1;fill-rule:evenodd;stroke:none;stroke-width:0.2;stroke-miterlimit:4;stroke-dasharray:none;stroke-dashoffset:0;stroke-opacity:1"
       id="rect2060" />
    <path
       d="M 104.38701,92.49999 L 75.499992,92.49999"
       style="fill:none;fill-opacity:0.75;fill-rule:evenodd;stroke:black;stroke-width:0.99998403px;stroke-linecap:butt;stroke-linejoin:miter;stroke-opacity:1"
       id="path9661" />
    <path
       d="M 79.952454,242.74998 L 81.702454,242.74998 L 86.484624,224.39015 C 84.012934,226.53789 82.550624,228.31759 80.467614,228.56248 C 80.467614,228.56248 81.268864,227.56014 81.196474,225.80187 C 81.126654,224.10599 80.209734,223.05449 78.385504,222.98926 C 76.623694,222.92626 75.121824,224.63888 75.258674,226.41343 C 75.395974,228.19385 77.144614,229.69521 78.519804,229.68317 C 82.372634,229.64944 84.459954,227.77762 85.681004,225.63126 L 79.952454,242.74998 z "
       style="fill:black;fill-opacity:1;fill-rule:evenodd;stroke:black;stroke-width:0.5;stroke-linecap:butt;stroke-linejoin:miter;stroke-miterlimit:4;stroke-dasharray:none;stroke-opacity:1"
       id="path9663" />
    <text
       x="148.41797"
       y="13.230451"
       style="font-size:12px;font-style:normal;font-variant:normal;font-weight:normal;font-stretch:normal;text-align:start;line-height:100%;writing-mode:lr-tb;text-anchor:start;fill:black;fill-opacity:1;stroke:none;stroke-width:1px;stroke-linecap:butt;stroke-linejoin:miter;stroke-opacity:1;font-family:Arial"
       id="text9665"
       xml:space="preserve"><tspan
         x="148.41797"
         y="13.230451"
         style="font-size:24px;font-style:normal;font-variant:normal;font-weight:normal;font-stretch:normal;text-align:start;line-height:100%;writing-mode:lr-tb;text-anchor:start;font-family:Arial"
         id="tspan9667">pause</tspan></text>
    <text
       x="149.17976"
       y="88.230087"
       style="font-size:11.99999428px;font-style:normal;font-variant:normal;font-weight:normal;font-stretch:normal;text-align:start;line-height:100%;writing-mode:lr-tb;text-anchor:start;fill:black;fill-opacity:1;stroke:none;stroke-width:1px;stroke-linecap:butt;stroke-linejoin:miter;stroke-opacity:1;font-family:Arial"
       id="text9669"
       xml:space="preserve"><tspan
         x="149.17976"
         y="88.230087"
         style="font-size:23.99998856px;font-style:normal;font-variant:normal;font-weight:normal;font-stretch:normal;text-align:start;line-height:100%;writing-mode:lr-tb;text-anchor:start;font-family:Arial"
         id="tspan9671">demi-pause</tspan></text>
    <text
       x="149.26172"
       y="163.23045"
       style="font-size:12px;font-style:normal;font-variant:normal;font-weight:normal;font-stretch:normal;text-align:start;line-height:100%;writing-mode:lr-tb;text-anchor:start;fill:black;fill-opacity:1;stroke:none;stroke-width:1px;stroke-linecap:butt;stroke-linejoin:miter;stroke-opacity:1;font-family:Arial"
       id="text9673"
       xml:space="preserve"><tspan
         x="149.26172"
         y="163.23045"
         style="font-size:24px;font-style:normal;font-variant:normal;font-weight:normal;font-stretch:normal;text-align:start;line-height:100%;writing-mode:lr-tb;text-anchor:start;font-family:Arial"
         id="tspan9675">soupir</tspan></text>
    <text
       x="149.17946"
       y="238.23114"
       transform="scale(1.000001,0.999999)"
       style="font-size:12.00001812px;font-style:normal;font-variant:normal;font-weight:normal;font-stretch:normal;text-align:start;line-height:100%;writing-mode:lr-tb;text-anchor:start;fill:black;fill-opacity:1;stroke:none;stroke-width:1px;stroke-linecap:butt;stroke-linejoin:miter;stroke-opacity:1;font-family:Arial"
       id="text9677"
       xml:space="preserve"><tspan
         x="149.17946"
         y="238.23114"
         style="font-size:24.00003624px;font-style:normal;font-variant:normal;font-weight:normal;font-stretch:normal;text-align:start;line-height:100%;writing-mode:lr-tb;text-anchor:start;font-family:Arial"
         id="tspan9679">demi-soupir</tspan></text>
    <text
       x="148.41797"
       y="313.23044"
       style="font-size:12px;font-style:normal;font-variant:normal;font-weight:normal;font-stretch:normal;text-align:start;line-height:100%;writing-mode:lr-tb;text-anchor:start;fill:black;fill-opacity:1;stroke:none;stroke-width:1px;stroke-linecap:butt;stroke-linejoin:miter;stroke-opacity:1;font-family:Arial"
       id="text9681"
       xml:space="preserve"><tspan
         x="148.41797"
         y="313.23044"
         style="font-size:24px;font-style:normal;font-variant:normal;font-weight:normal;font-stretch:normal;text-align:start;line-height:100%;writing-mode:lr-tb;text-anchor:start;font-family:Arial"
         id="tspan9683">quart de soupir</tspan></text>
    <text
       x="148.41797"
       y="388.23044"
       style="font-size:12px;font-style:normal;font-variant:normal;font-weight:normal;font-stretch:normal;text-align:start;line-height:100%;writing-mode:lr-tb;text-anchor:start;fill:black;fill-opacity:1;stroke:none;stroke-width:1px;stroke-linecap:butt;stroke-linejoin:miter;stroke-opacity:1;font-family:Arial"
       id="text9685"
       xml:space="preserve"><tspan
         x="148.41797"
         y="388.23044"
         style="font-size:24px;font-style:normal;font-variant:normal;font-weight:normal;font-stretch:normal;text-align:start;line-height:100%;writing-mode:lr-tb;text-anchor:start;font-family:Arial"
         id="tspan9687">huitième de soupir</tspan></text>
  </g>
</svg>
